<svg width="567" height="117" xmlns="http://www.w3.org/2000/svg" xmlns:svg="http://www.w3.org/2000/svg">
 <!-- Created with Method Draw - http://github.com/duopixel/Method-Draw/ -->
 <title>logo-black</title>
 <g>
  <title>background</title>
  <rect fill="none" id="canvas_background" height="151" width="573" y="-1" x="-1"/>
  <g display="none" id="canvasGrid">
   <rect fill="url(#gridpattern)" stroke-width="0" y="0" x="0" height="100%" width="100%" id="svg_1"/>
  </g>
 </g>
 <g>
  <title>Layer 1</title>
  <g stroke="null" id="svg_41">
   <g stroke="null" transform="matrix(0.19281683537535893,0,0,0.19086374798880604,-492.3264011321929,-285.3622255908136) " id="svg_5">
    <g stroke="null" id="svg_6">
     <polygon stroke="null" id="svg_7" points="2653.512451171875,2012.6125888824463 2653.512451171875,1695.6118564605713 2608.512451171875,1695.6118564605713 2608.512451171875,2057.612955093384 2970.512939453125,2057.612955093384 2970.512939453125,2012.6125888824463 "/>
    </g>
   </g>
   <g stroke="null" transform="matrix(0.19281683537535893,0,0,0.19086374798880604,-492.3264011321929,-285.3622255908136) " id="svg_8">
    <g stroke="null" id="svg_9">
     <polygon stroke="null" id="svg_10" points="2758.512939453125,1545.6114902496338 2758.512939453125,1590.6116123199463 3075.512939453125,1590.6116123199463 3075.512939453125,1907.6123447418213 3120.512939453125,1907.6123447418213 3120.512939453125,1545.6114902496338 "/>
    </g>
   </g>
   <g stroke="null" transform="matrix(0.19281683537535893,0,0,0.19086374798880604,-492.3264011321929,-285.3622255908136) " id="svg_11">
    <g stroke="null" id="svg_12">
     <rect stroke="null" id="svg_13" height="45" width="45" y="1620.6112" x="2683.51342"/>
    </g>
   </g>
   <g stroke="null" transform="matrix(0.19281683537535893,0,0,0.19086374798880604,-492.3264011321929,-285.3622255908136) " id="svg_14">
    <g stroke="null" id="svg_15">
     <rect stroke="null" id="svg_16" height="45" width="45" y="1937.6112" x="3000.51342"/>
    </g>
   </g>
   <g stroke="null" transform="matrix(0.19281683537535893,0,0,0.19086374798880604,-492.3264011321929,-285.3622255908136) " id="svg_17">
    <g stroke="null" id="svg_18">
     <polygon stroke="null" id="svg_19" points="2728.512939453125,1937.6124668121338 2728.512939453125,1695.6118564605713 2683.512451171875,1695.6118564605713 2683.512451171875,1982.6125888824463 2970.512939453125,1982.6125888824463 2970.512939453125,1937.6124668121338 "/>
    </g>
   </g>
   <g stroke="null" transform="matrix(0.19281683537535893,0,0,0.19086374798880604,-492.3264011321929,-285.3622255908136) " id="svg_20">
    <g stroke="null" id="svg_21">
     <polygon stroke="null" id="svg_22" points="2758.512939453125,1620.6117343902588 2758.512939453125,1665.6118564605713 3000.512939453125,1665.6118564605713 3000.512939453125,1907.6123447418213 3045.512939453125,1907.6123447418213 3045.512939453125,1620.6117343902588 "/>
    </g>
   </g>
   <g stroke="null" transform="matrix(0.19281683537535893,0,0,0.19086374798880604,-492.3264011321929,-285.3622255908136) " id="svg_23">
    <g stroke="null" id="svg_24">
     <rect stroke="null" id="svg_25" height="212" width="212" y="1695.6112" x="2758.51342"/>
    </g>
   </g>
   <g stroke="null" transform="matrix(0.19281683537535893,0,0,0.19086374798880604,-492.3264011321929,-285.3622255908136) " id="svg_26"/>
   <g stroke="null" transform="matrix(0.19281683537535893,0,0,0.19086374798880604,-492.3264011321929,-285.3622255908136) " id="svg_27"/>
   <g stroke="null" transform="matrix(0.19281683537535893,0,0,0.19086374798880604,-492.3264011321929,-285.3622255908136) " id="svg_28"/>
   <g stroke="null" transform="matrix(0.19281683537535893,0,0,0.19086374798880604,-492.3264011321929,-285.3622255908136) " id="svg_29"/>
   <g stroke="null" transform="matrix(0.19281683537535893,0,0,0.19086374798880604,-492.3264011321929,-285.3622255908136) " id="svg_30"/>
   <g stroke="null" transform="matrix(0.19281683537535893,0,0,0.19086374798880604,-492.3264011321929,-285.3622255908136) " id="svg_31"/>
   <g stroke="null" transform="matrix(0.19281683537535893,0,0,0.19086374798880604,-492.3264011321929,-285.3622255908136) " id="svg_32"/>
   <g stroke="null" transform="matrix(0.19281683537535893,0,0,0.19086374798880604,-492.3264011321929,-285.3622255908136) " id="svg_33"/>
   <g stroke="null" transform="matrix(0.19281683537535893,0,0,0.19086374798880604,-492.3264011321929,-285.3622255908136) " id="svg_34"/>
   <g stroke="null" transform="matrix(0.19281683537535893,0,0,0.19086374798880604,-492.3264011321929,-285.3622255908136) " id="svg_35"/>
   <g stroke="null" transform="matrix(0.19281683537535893,0,0,0.19086374798880604,-492.3264011321929,-285.3622255908136) " id="svg_36"/>
   <g stroke="null" transform="matrix(0.19281683537535893,0,0,0.19086374798880604,-492.3264011321929,-285.3622255908136) " id="svg_37"/>
   <g stroke="null" transform="matrix(0.19281683537535893,0,0,0.19086374798880604,-492.3264011321929,-285.3622255908136) " id="svg_38"/>
   <g stroke="null" transform="matrix(0.19281683537535893,0,0,0.19086374798880604,-492.3264011321929,-285.3622255908136) " id="svg_39"/>
   <g stroke="null" transform="matrix(0.19281683537535893,0,0,0.19086374798880604,-492.3264011321929,-285.3622255908136) " id="svg_40"/>
  </g>
  <text stroke="#000" transform="matrix(3.423993909830504,0,0,3.172658184159523,-360.26226074819317,-390.84516744105883) " xml:space="preserve" text-anchor="start" font-family="Monospace" font-size="24" id="svg_42" y="150.23236" x="140.03702" stroke-width="0" fill="#000000">VueLayers</text>
 </g>
</svg>
