<svg width="567" height="117" xmlns="http://www.w3.org/2000/svg">
 <!-- Created with Method Draw - http://github.com/duopixel/Method-Draw/ -->

 <title>logo-black</title>
 <g>
  <title>background</title>
  <rect x="-1" y="-1" width="569" height="119" id="canvas_background" fill="none"/>
  <g id="canvasGrid" display="none">
   <rect id="svg_1" width="100%" height="100%" x="0" y="0" stroke-width="0" fill="url(#gridpattern)"/>
  </g>
 </g>
 <g>
  <title>Layer 1</title>
  <g id="svg_41" stroke="null">
   <g id="svg_5" transform="matrix(0.19281683537535893,0,0,0.19086374798880604,-492.3264011321929,-285.3622255908136) " stroke="null">
    <g id="svg_6" stroke="null">
     <polygon fill="#5656ff" points="2653.512451171875,2012.6125888824463 2653.512451171875,1695.6118564605713 2608.512451171875,1695.6118564605713 2608.512451171875,2057.612955093384 2970.512939453125,2057.612955093384 2970.512939453125,2012.6125888824463 " id="svg_7" stroke="null"/>
    </g>
   </g>
   <g id="svg_8" transform="matrix(0.19281683537535893,0,0,0.19086374798880604,-492.3264011321929,-285.3622255908136) " stroke="null">
    <g id="svg_9" stroke="null">
     <polygon fill="#5656ff" points="2758.512939453125,1545.6114902496338 2758.512939453125,1590.6116123199463 3075.512939453125,1590.6116123199463 3075.512939453125,1907.6123447418213 3120.512939453125,1907.6123447418213 3120.512939453125,1545.6114902496338 " id="svg_10" stroke="null"/>
    </g>
   </g>
   <g id="svg_11" transform="matrix(0.19281683537535893,0,0,0.19086374798880604,-492.3264011321929,-285.3622255908136) " stroke="null">
    <g id="svg_12" stroke="null">
     <rect fill="#5656ff" x="2683.51342" y="1620.6112" width="45" height="45" id="svg_13" stroke="null"/>
    </g>
   </g>
   <g id="svg_14" transform="matrix(0.19281683537535893,0,0,0.19086374798880604,-492.3264011321929,-285.3622255908136) " stroke="null">
    <g id="svg_15" stroke="null">
     <rect fill="#5656ff" x="3000.51342" y="1937.6112" width="45" height="45" id="svg_16" stroke="null"/>
    </g>
   </g>
   <g id="svg_17" transform="matrix(0.19281683537535893,0,0,0.19086374798880604,-492.3264011321929,-285.3622255908136) " stroke="null">
    <g id="svg_18" stroke="null">
     <polygon fill="#5656ff" points="2728.512939453125,1937.6124668121338 2728.512939453125,1695.6118564605713 2683.512451171875,1695.6118564605713 2683.512451171875,1982.6125888824463 2970.512939453125,1982.6125888824463 2970.512939453125,1937.6124668121338 " id="svg_19" stroke="null"/>
    </g>
   </g>
   <g id="svg_20" transform="matrix(0.19281683537535893,0,0,0.19086374798880604,-492.3264011321929,-285.3622255908136) " stroke="null">
    <g id="svg_21" stroke="null">
     <polygon fill="#5656ff" points="2758.512939453125,1620.6117343902588 2758.512939453125,1665.6118564605713 3000.512939453125,1665.6118564605713 3000.512939453125,1907.6123447418213 3045.512939453125,1907.6123447418213 3045.512939453125,1620.6117343902588 " id="svg_22" stroke="null"/>
    </g>
   </g>
   <g id="svg_23" transform="matrix(0.19281683537535893,0,0,0.19086374798880604,-492.3264011321929,-285.3622255908136) " stroke="null">
    <g id="svg_24" stroke="null">
     <rect fill="#5656ff" x="2758.51342" y="1695.6112" width="212" height="212" id="svg_25" stroke="null"/>
    </g>
   </g>
   <g id="svg_26" transform="matrix(0.19281683537535893,0,0,0.19086374798880604,-492.3264011321929,-285.3622255908136) " stroke="null"/>
   <g id="svg_27" transform="matrix(0.19281683537535893,0,0,0.19086374798880604,-492.3264011321929,-285.3622255908136) " stroke="null"/>
   <g id="svg_28" transform="matrix(0.19281683537535893,0,0,0.19086374798880604,-492.3264011321929,-285.3622255908136) " stroke="null"/>
   <g id="svg_29" transform="matrix(0.19281683537535893,0,0,0.19086374798880604,-492.3264011321929,-285.3622255908136) " stroke="null"/>
   <g id="svg_30" transform="matrix(0.19281683537535893,0,0,0.19086374798880604,-492.3264011321929,-285.3622255908136) " stroke="null"/>
   <g id="svg_31" transform="matrix(0.19281683537535893,0,0,0.19086374798880604,-492.3264011321929,-285.3622255908136) " stroke="null"/>
   <g id="svg_32" transform="matrix(0.19281683537535893,0,0,0.19086374798880604,-492.3264011321929,-285.3622255908136) " stroke="null"/>
   <g id="svg_33" transform="matrix(0.19281683537535893,0,0,0.19086374798880604,-492.3264011321929,-285.3622255908136) " stroke="null"/>
   <g id="svg_34" transform="matrix(0.19281683537535893,0,0,0.19086374798880604,-492.3264011321929,-285.3622255908136) " stroke="null"/>
   <g id="svg_35" transform="matrix(0.19281683537535893,0,0,0.19086374798880604,-492.3264011321929,-285.3622255908136) " stroke="null"/>
   <g id="svg_36" transform="matrix(0.19281683537535893,0,0,0.19086374798880604,-492.3264011321929,-285.3622255908136) " stroke="null"/>
   <g id="svg_37" transform="matrix(0.19281683537535893,0,0,0.19086374798880604,-492.3264011321929,-285.3622255908136) " stroke="null"/>
   <g id="svg_38" transform="matrix(0.19281683537535893,0,0,0.19086374798880604,-492.3264011321929,-285.3622255908136) " stroke="null"/>
   <g id="svg_39" transform="matrix(0.19281683537535893,0,0,0.19086374798880604,-492.3264011321929,-285.3622255908136) " stroke="null"/>
   <g id="svg_40" transform="matrix(0.19281683537535893,0,0,0.19086374798880604,-492.3264011321929,-285.3622255908136) " stroke="null"/>
  </g>
  <text fill="#5656ff" stroke-width="0" x="140.03702" y="150.23236" id="svg_42" font-size="24" font-family="Monospace" text-anchor="start" xml:space="preserve" transform="matrix(3.423993909830504,0,0,3.172658184159523,-360.26226074819317,-390.84516744105883) " stroke="#000">VueLayers</text>
 </g>
</svg>